<?xml version="1.0" standalone="no"?>
<!DOCTYPE svg PUBLIC "-//W3C//DTD SVG 20010904//EN"
 "http://www.w3.org/TR/2001/REC-SVG-20010904/DTD/svg10.dtd">
<svg version="1.0" xmlns="http://www.w3.org/2000/svg"
 width="1280.000000pt" height="1204.000000pt" viewBox="0 0 1280.000000 1204.000000"
 preserveAspectRatio="xMidYMid meet">
<g transform="translate(0.000000,1204.000000) scale(0.100000,-0.100000)"
fill="#000000" stroke="none">
<path d="M7265 11906 c585 -210 1045 -549 1372 -1012 703 -995 664 -2360 -94
-3299 -88 -109 -286 -306 -399 -397 -177 -143 -457 -307 -685 -401 -206 -85
-466 -158 -694 -196 -220 -36 -200 -28 -200 -88 1 -29 2 -149 3 -267 l2 -214
48 -11 c60 -16 216 -89 279 -132 157 -108 278 -279 324 -457 30 -120 23 -329
-16 -452 -4 -14 39 -43 221 -149 125 -72 232 -131 238 -131 6 0 51 50 100 111
491 616 1145 999 1866 1095 149 19 459 22 605 4 943 -111 1764 -687 2175
-1525 177 -363 257 -690 267 -1098 7 -280 -2 -374 -73 -757 -12 -65 48 124 80
252 48 194 72 342 98 608 21 223 21 227 4 430 -10 113 -26 260 -37 326 -161
1054 -808 1990 -1759 2546 -339 198 -726 344 -1139 429 -52 11 -99 23 -104 28
-5 5 5 44 23 93 418 1071 222 2382 -502 3349 -130 174 -233 292 -369 424 -388
375 -824 644 -1329 819 -134 47 -381 116 -410 115 -8 0 39 -19 105 -43z"/>
<path d="M5460 11901 c-622 -161 -1146 -458 -1591 -901 -579 -577 -930 -1313
-1031 -2165 -17 -146 -17 -646 0 -785 34 -276 88 -522 167 -767 24 -76 41
-141 37 -145 -4 -4 -63 -16 -131 -28 -1212 -202 -2275 -1121 -2701 -2334 -147
-417 -234 -1005 -201 -1346 36 -365 61 -522 121 -755 57 -221 78 -264 41 -82
-42 202 -54 334 -55 582 0 252 8 339 51 555 160 801 696 1498 1443 1879 268
137 544 225 865 277 140 23 571 26 710 6 551 -83 1014 -296 1440 -663 130
-112 308 -297 414 -429 46 -58 87 -109 91 -114 12 -12 460 253 460 272 0 8 -7
51 -16 95 -23 113 -15 325 16 422 83 261 260 440 520 526 l100 32 -2 270 -3
271 -120 17 c-1301 188 -2231 1078 -2416 2312 -111 745 101 1530 572 2117 318
396 737 684 1269 871 162 57 146 61 -50 10z"/>
<path d="M6210 8589 c-604 -35 -1200 -237 -1707 -581 -57 -39 -103 -75 -103
-82 0 -6 132 -143 293 -304 l294 -294 99 65 c195 128 413 223 649 282 187 48
325 66 535 72 355 11 682 -39 1010 -152 119 -41 357 -153 443 -208 32 -20 63
-37 70 -37 14 0 550 556 555 576 2 7 -35 41 -83 76 -474 350 -1045 551 -1675
588 -190 11 -183 11 -380 -1z"/>
<path d="M3036 5538 c-11 -53 -16 -102 -26 -259 -22 -341 30 -744 141 -1089
278 -867 910 -1595 1734 -1996 71 -35 132 -60 136 -56 9 9 219 773 219 795 0
10 -38 34 -102 67 -433 219 -782 586 -1023 1075 -192 391 -285 762 -285 1141
l0 153 -37 10 c-159 42 -726 181 -738 181 -8 0 -17 -10 -19 -22z"/>
<path d="M9325 5446 l-389 -103 4 -84 c21 -360 -35 -681 -176 -1017 -136 -324
-326 -604 -594 -873 -191 -192 -386 -341 -560 -429 -40 -20 -60 -36 -60 -48 0
-15 198 -714 215 -760 6 -15 43 -2 212 79 356 168 707 437 975 747 464 537
742 1197 809 1915 12 134 8 626 -6 660 -4 9 -15 17 -24 16 -9 0 -191 -47 -406
-103z"/>
<path d="M6964 4619 c-78 -82 -233 -175 -364 -218 -266 -88 -558 -18 -781 187
-31 29 -60 52 -63 52 -15 0 -449 -256 -453 -267 -3 -7 13 -59 36 -115 321
-824 305 -1633 -48 -2337 -269 -535 -692 -950 -1246 -1221 -348 -171 -660
-254 -1047 -282 -348 -24 -733 32 -1074 157 -135 49 -397 179 -522 259 -123
78 -270 190 -395 300 -131 115 -67 38 112 -137 393 -382 816 -639 1342 -816
247 -83 490 -130 842 -163 235 -22 239 -22 440 -4 383 33 633 81 937 180 606
197 1201 589 1612 1062 44 52 85 94 89 94 4 0 41 -39 80 -88 145 -174 362
-383 549 -528 344 -266 819 -492 1275 -608 678 -171 1376 -146 2036 75 481
160 891 404 1297 771 118 107 281 280 201 213 -20 -17 -74 -62 -120 -100 -343
-288 -768 -503 -1174 -595 -782 -177 -1600 2 -2264 497 -154 115 -420 381
-537 538 -278 372 -442 773 -510 1250 -24 163 -24 521 0 695 37 271 96 507
192 759 30 80 56 150 57 156 2 11 -430 263 -454 264 -8 1 -28 -13 -45 -30z"/>
</g>
</svg>
